<svg xmlns="http://www.w3.org/2000/svg" viewBox="0 0 24 24" fill="none"><g clip-path="url(#a)"><path fill="currentColor" fill-rule="evenodd" d="M18.131 18.245a9.94 9.94 0 0 0 2.885-1.977L24 19.597c-1.18 1.252-2.601 2.252-4.262 3-1.662.746-3.334 1.12-5.017 1.12-1.88 0-3.617-.368-5.213-1.104a11.727 11.727 0 0 1-4.065-3.066 11.132 11.132 0 0 1-2.328-4.498H0v-2.11h2.754c-.022-.22-.033-.56-.033-1.022 0-.33.011-.582.033-.758H0V9.05h3.05a10.862 10.862 0 0 1 2.327-4.565c1.137-1.33 2.53-2.367 4.18-3.114C11.207.624 13.005.25 14.951.25c1.661 0 3.3.34 4.918 1.022 1.617.68 2.994 1.615 4.131 2.801l-2.984 3.692a9.238 9.238 0 0 0-2.82-2.192c-1.07-.538-2.13-.808-3.18-.808-1.464 0-2.776.39-3.934 1.17-1.159.78-2 1.819-2.525 3.115h7.87v2.11H8.065a5.355 5.355 0 0 0-.033.691c0 .242.022.605.065 1.088h8.328v2.11H8.754a6.827 6.827 0 0 0 2.525 2.85c1.114.715 2.36 1.072 3.737 1.072 1.006 0 2.044-.242 3.115-.726Z" clip-rule="evenodd"/></g><defs><clipPath id="a"><path fill="currentColor" d="M0 0h24v24H0z"/></clipPath></defs></svg>