<svg xmlns="http://www.w3.org/2000/svg" viewBox="0 0 143 49" fill="none"><g clip-path="url(#a)"><path fill="#66C4AC" fill-rule="evenodd" d="M5.48 49.058c-.437.04-.854.06-1.241.06-1.183 0-2.057-.14-2.593-.388-.546-.268-.914-.735-1.103-1.42-.188-.686-.278-1.769-.278-3.249 0-1.47.09-2.553.278-3.248.19-.685.557-1.152 1.103-1.42.536-.259 1.41-.388 2.593-.388.397 0 .804.02 1.241.06.427.04.785.09 1.053.159v1.073c-.715-.1-1.37-.14-1.977-.14-1.003 0-1.708.07-2.105.229-.398.159-.656.487-.775.993-.13.497-.189 1.4-.189 2.682s.06 2.176.189 2.682c.119.507.377.845.775.994.397.149 1.102.228 2.105.228.735 0 1.42-.05 2.037-.149v1.103a8.42 8.42 0 0 1-1.113.139M8.846 49v-9.875h1.241v8.682h4.6V49H8.845ZM16.568 49v-9.875h6.427v1.143h-5.196v3.169h4.51v1.152H17.8v3.258h5.196v1.152h-6.427ZM28.722 40.453h-.07l-1.807 4.759h3.685l-1.808-4.759Zm3.219 8.543-1.023-2.622h-4.45l-1.024 2.622h-1.241l3.725-9.874h1.56l3.724 9.874h-1.271ZM41.507 49l-5.205-7.55h-.06V49h-1.191v-9.875h1.261l5.136 7.37h.06v-7.37h1.181V49h-1.182Z" clip-rule="evenodd"/><mask id="b" width="144" height="50" x="0" y="0" maskUnits="userSpaceOnUse" style="mask-type:luminance"><path fill="#fff" fill-rule="evenodd" d="M0 49.26h143.209V0H0v49.26Z" clip-rule="evenodd"/></mask><g fill-rule="evenodd" clip-rule="evenodd" mask="url(#b)"><path fill="#66C4AC" d="M45.554 49.001h1.242v-9.874h-1.242v9.874ZM56.116 49l-5.205-7.55h-.06V49H49.66v-9.875h1.261l5.136 7.37h.06v-7.37h1.181V49h-1.182ZM63.751 44.78v-1.133h3.417v5.175c-.477.09-.993.16-1.59.209-.585.06-1.102.09-1.559.09-1.202 0-2.096-.14-2.672-.408-.576-.258-.973-.745-1.192-1.43-.218-.696-.328-1.769-.328-3.219s.12-2.523.338-3.218c.219-.705.616-1.182 1.192-1.44.586-.259 1.47-.398 2.662-.398.477 0 .994.03 1.58.09.576.06 1.082.119 1.52.198v1.093c-1.093-.159-1.918-.239-2.494-.239-1.132 0-1.927.07-2.374.2-.447.118-.755.446-.933.963-.18.536-.259 1.45-.259 2.751 0 1.202.06 2.066.199 2.593.129.526.397.874.804 1.063.398.178 1.063.268 1.977.268.288 0 .616-.01 1.004-.04.377-.02.695-.05.933-.07V44.78h-2.225ZM80.31 49.213c-.447.03-.854.05-1.242.05-1.192 0-2.056-.14-2.602-.388-.537-.268-.904-.725-1.093-1.42-.189-.676-.278-1.759-.278-3.249 0-1.47.09-2.553.278-3.238.189-.685.556-1.162 1.093-1.43.546-.249 1.41-.388 2.602-.388.398 0 .805.02 1.232.06.427.04.785.1 1.063.159v1.073c-.715-.09-1.38-.13-1.977-.13-1.003 0-1.708.07-2.106.219-.397.159-.655.487-.784.993-.12.507-.18 1.4-.18 2.682s.06 2.176.18 2.692c.129.497.387.835.784.984.398.149 1.103.228 2.106.228.735 0 1.41-.05 2.037-.139v1.093c-.298.06-.666.109-1.113.149M89.37 47.922c.348-.129.576-.437.676-.933.109-.497.159-1.42.159-2.782 0-1.36-.05-2.284-.16-2.781-.099-.497-.327-.805-.675-.934-.348-.129-1.003-.188-1.977-.188-.973 0-1.639.06-1.986.188-.358.13-.586.437-.686.934-.109.497-.159 1.42-.159 2.781 0 1.361.05 2.285.16 2.782.099.496.327.804.685.933.347.13 1.013.19 1.987.19.973 0 1.628-.06 1.976-.19m-4.758.954c-.546-.268-.894-.715-1.043-1.36-.149-.647-.218-1.75-.218-3.309 0-1.56.07-2.662.218-3.307.15-.646.497-1.093 1.043-1.361.537-.249 1.47-.388 2.782-.388 1.3 0 2.224.14 2.77.388.557.268.905.715 1.054 1.36.149.646.218 1.749.218 3.308 0 1.56-.07 2.662-.218 3.308-.15.646-.497 1.093-1.053 1.361-.547.248-1.47.387-2.772.387-1.31 0-2.245-.139-2.78-.387M102.916 49.145v-7.758h-.059l-3.388 7.758h-.893l-3.378-7.758h-.06v7.758h-1.162v-9.874h1.67l3.367 7.679h.07l3.376-7.679h1.669v9.874h-1.212ZM110.881 44.41c.616 0 1.073-.069 1.361-.198.288-.129.476-.328.566-.596.079-.258.129-.665.129-1.202 0-.536-.04-.943-.129-1.202-.08-.278-.258-.467-.537-.606-.288-.129-.745-.178-1.36-.178h-2.682v3.983h2.652Zm-3.894-5.144h4.341c.794 0 1.4.129 1.808.387.407.268.685.616.814 1.053.139.437.209 1.013.209 1.708 0 .666-.07 1.232-.209 1.67-.129.446-.407.804-.824 1.072s-1.023.397-1.828.397h-3.069v3.596h-1.242v-9.883ZM119.233 40.608h-.07l-1.808 4.749h3.686l-1.808-4.748Zm3.218 8.533-1.023-2.622h-4.45l-1.013 2.622h-1.252l3.725-9.873h1.56l3.725 9.873h-1.272ZM132.018 49.145l-5.205-7.55h-.06v7.55h-1.192v-9.874h1.262l5.135 7.38h.06v-7.38h1.182v9.874h-1.182ZM138.377 49.145V45.41l-3.576-6.139h1.321l2.861 4.808h.1l2.84-4.808h1.292l-3.606 6.14v3.734h-1.232Z"/><path fill="#282A5B" d="M.896 30.801v-6.089c3.646.358 6.725.527 9.238.527 1.47 0 2.583-.05 3.367-.17.775-.128 1.322-.317 1.66-.585.297-.239.486-.527.556-.874.079-.348.109-.835.109-1.46 0-.746-.05-1.282-.179-1.61-.11-.328-.358-.566-.715-.705-.358-.13-.984-.258-1.878-.378l-5.701-.715c-2.037-.238-3.576-.755-4.64-1.55a5.81 5.81 0 0 1-2.155-3.069c-.367-1.261-.556-2.83-.556-4.708 0-2.662.487-4.679 1.48-6.06.983-1.37 2.305-2.274 3.963-2.711 1.66-.427 3.775-.656 6.348-.656 1.887 0 3.606.08 5.185.238 1.57.15 3.278.388 5.136.706v5.98c-3.567-.398-6.477-.596-8.752-.596-2.394 0-3.943.188-4.658.546-.388.169-.636.427-.745.755-.1.328-.16.795-.16 1.4 0 .745.06 1.272.16 1.59.109.308.327.536.675.665.338.14.954.268 1.818.378l6.546.804c1.311.16 2.394.428 3.248.815.854.387 1.56 1.053 2.136 1.977.864 1.281 1.291 3.337 1.291 6.138 0 2.94-.457 5.136-1.38 6.616-.924 1.48-2.166 2.454-3.726 2.9-1.55.448-3.576.666-6.059.666-4.36 0-8.235-.248-11.612-.765M45.523 24.778c.656-.318 1.073-1.033 1.252-2.176.189-1.142.268-3.407.268-6.814 0-3.417-.08-5.692-.268-6.824-.179-1.133-.596-1.858-1.252-2.176-.655-.317-1.956-.466-3.903-.466s-3.258.149-3.954.466c-.675.318-1.112 1.053-1.291 2.226-.179 1.162-.268 3.427-.268 6.774 0 3.348.09 5.593.268 6.765.179 1.172.616 1.907 1.291 2.225.696.308 2.007.467 3.954.467s3.248-.16 3.904-.467M32.361 30.2c-1.838-.914-2.99-2.364-3.457-4.38-.467-1.997-.695-5.344-.695-10.033 0-4.698.228-8.046.695-10.053.467-2.006 1.62-3.466 3.457-4.37C34.199.45 37.279-.006 41.62-.006c4.33 0 7.42.457 9.268 1.37 1.837.905 2.97 2.365 3.427 4.372.447 2.006.665 5.354.665 10.052 0 4.689-.218 8.036-.665 10.033-.457 2.016-1.59 3.466-3.427 4.38-1.848.914-4.937 1.371-9.268 1.371-4.341 0-7.42-.457-9.258-1.37M60.724 31.209V.355h7.808v24.217H80.77v6.636H60.724ZM131.378 13.941c.676-.178 1.113-.516 1.321-1.013.209-.487.318-1.311.318-2.483 0-1.202-.089-2.046-.268-2.533-.179-.497-.606-.825-1.281-1.003-.676-.19-1.818-.269-3.427-.269h-4.123v7.57h4.033c1.609 0 2.762-.08 3.427-.269Zm1.997 17.265-4.033-10.808h-5.424v10.808h-7.807V.353h14.8c2.841 0 4.987.397 6.437 1.192 1.45.794 2.404 1.877 2.871 3.268.457 1.4.685 3.258.685 5.592 0 2.146-.268 4.023-.824 5.603-.556 1.579-1.659 2.731-3.298 3.456l4.758 11.742h-8.165Z"/><path fill="#66C4AC" d="m96.908 7.733.149-.477h.06l.089-.169 3.715 8.275 7.579 3.397L102.609.353H92.03L86.18 18.64l7.3-3.278 3.428-7.629Z"/><path fill="#282A5B" d="m108.674 19.306-7.758 3.487-3.715 8.274-3.715-8.274-7.55-3.387-3.774 11.8h30.316l-3.804-11.9Z"/></g></g><defs><clipPath id="a"><path fill="#fff" d="M0 0h143v49H0z"/></clipPath></defs></svg>