<svg xmlns="http://www.w3.org/2000/svg" viewBox="0 0 24 24" fill="none"><path fill="currentColor" fill-rule="evenodd" d="M8.322 1.935a1.935 1.935 0 0 1 3.87 0v12.386A5.034 5.034 0 0 1 10.258 24a5.032 5.032 0 0 1-1.935-9.679V1.935Zm1.935 18.968a1.935 1.935 0 1 0 0-3.87 1.935 1.935 0 0 0 0 3.87ZM18.773 2.71a.387.387 0 0 0-.387-.387h-3.87a.387.387 0 1 0 0 .774h3.87a.387.387 0 0 0 .387-.387ZM17.225 3.87a.387.387 0 1 1 0 .774h-2.71a.387.387 0 1 1 0-.774h2.71Zm1.548 1.935a.387.387 0 0 0-.387-.387h-3.87a.387.387 0 1 0 0 .775h3.87a.387.387 0 0 0 .387-.388Z" clip-rule="evenodd"/></svg>